<svg width="91" height="90" viewBox="0 0 91 90" fill="none" xmlns="http://www.w3.org/2000/svg">
<g clip-path="url(#clip0_49_1003)" filter="url(#filter0_d_49_1003)">
<g clip-path="url(#clip1_49_1003)">
<path d="M26.6364 38.6137C26.6364 37.571 25.7926 36.7273 24.75 36.7273C23.7073 36.7273 22.8635 37.571 22.8635 38.6137C22.8635 43.5672 28.3274 50.3685 28.9501 51.1293C29.3241 51.5826 29.8656 51.8183 30.4108 51.8183C30.8308 51.8183 31.2546 51.6783 31.6063 51.3909C32.4113 50.7295 32.5273 49.5414 31.8679 48.7345C29.8454 46.2698 26.6364 41.3437 26.6364 38.6137Z" fill="#FF9900"/>
<path d="M66.25 36.7273C65.2074 36.7273 64.3636 37.571 64.3636 38.6137C64.3636 41.3345 61.1546 46.266 59.132 48.7364C58.4725 49.5414 58.5903 50.7297 59.3955 51.3909C59.7455 51.6783 60.1692 51.8183 60.591 51.8183C61.1362 51.8183 61.6759 51.5826 62.0499 51.1293C62.6726 50.3685 68.1365 43.5674 68.1365 38.6137C68.1365 37.571 67.2927 36.7273 66.25 36.7273Z" fill="#FF9900"/>
<path d="M45.5001 36.7273C44.4574 36.7273 43.6136 37.571 43.6136 38.6137V49.9319C43.6136 50.9746 44.4574 51.8183 45.5001 51.8183C46.5428 51.8183 47.3865 50.9746 47.3865 49.9319V38.6137C47.3863 37.571 46.5426 36.7273 45.5001 36.7273Z" fill="#FF9900"/>
<path d="M66.25 6.54552C65.1069 6.54552 63.9123 6.69672 62.6717 6.92715C58.5171 2.08403 52.3669 -1 45.5001 -1C38.6333 -1 32.4829 2.08403 28.3284 6.92698C27.0877 6.69672 25.8931 6.54534 24.7501 6.54534C13.3083 6.54552 4 15.8538 4 27.2955C4 35.1356 8.42117 42.2629 15.3624 45.7869L15.3256 74.2943C15.3238 76.3519 16.1232 78.2862 17.5767 79.7415C19.032 81.1987 20.9644 82 23.0222 82H67.9854C72.2298 82 75.682 78.5478 75.682 74.3035V45.7593C82.5974 42.2261 87.0002 35.1098 87.0002 27.2955C87 15.8538 77.6917 6.54552 66.25 6.54552ZM71.9091 74.3036C71.9091 76.4663 70.1481 78.2275 67.9853 78.2275H23.022C21.9738 78.2275 20.9882 77.8185 20.2458 77.0762C19.5052 76.3338 19.0963 75.3483 19.0981 74.2983L19.108 66.9091H71.9091V74.3036ZM73.077 42.823C72.9775 42.8635 72.8836 42.9114 72.7951 42.9685C72.5575 43.1158 72.3622 43.3112 72.2167 43.5358C72.0694 43.7587 71.9698 44.0167 71.9293 44.2929C71.9127 44.398 71.9072 44.503 71.909 44.6098V63.1363H19.1128L19.137 44.6355C19.1388 44.5324 19.1333 44.4273 19.1186 44.326C19.0781 44.0404 18.9731 43.7751 18.8201 43.5449C18.6763 43.3293 18.4885 43.1415 18.26 42.9977C18.1661 42.9388 18.0666 42.8872 17.9635 42.8447C11.7721 40.1372 7.77267 34.0395 7.77267 27.2955C7.77267 17.9336 15.3882 10.3182 24.75 10.3182C25.1159 10.3182 25.5021 10.3624 25.8811 10.3923C23.9725 13.7092 22.8635 17.5422 22.8635 21.6364C22.8635 22.6791 23.7073 23.5228 24.75 23.5228C25.7926 23.5228 26.6364 22.6791 26.6364 21.6364C26.6364 11.2355 35.0992 2.77267 45.5001 2.77267C55.901 2.77267 64.3636 11.2355 64.3636 21.6364C64.3636 22.6791 65.2074 23.5228 66.25 23.5228C67.2927 23.5228 68.1365 22.6791 68.1365 21.6364C68.1365 17.5422 67.0275 13.7094 65.1189 10.3923C65.4979 10.3624 65.8841 10.3182 66.25 10.3182C75.612 10.3182 83.2273 17.9337 83.2273 27.2955C83.2273 34.0156 79.2446 40.1057 73.077 42.823Z" fill="#FF9900"/>
</g>
</g>
<defs>
<filter id="filter0_d_49_1003" x="0" y="0" width="91" height="91" filterUnits="userSpaceOnUse" color-interpolation-filters="sRGB">
<feFlood flood-opacity="0" result="BackgroundImageFix"/>
<feColorMatrix in="SourceAlpha" type="matrix" values="0 0 0 0 0 0 0 0 0 0 0 0 0 0 0 0 0 0 127 0" result="hardAlpha"/>
<feOffset dy="4"/>
<feGaussianBlur stdDeviation="2"/>
<feComposite in2="hardAlpha" operator="out"/>
<feColorMatrix type="matrix" values="0 0 0 0 0 0 0 0 0 0 0 0 0 0 0 0 0 0 0.25 0"/>
<feBlend mode="normal" in2="BackgroundImageFix" result="effect1_dropShadow_49_1003"/>
<feBlend mode="normal" in="SourceGraphic" in2="effect1_dropShadow_49_1003" result="shape"/>
</filter>
<clipPath id="clip0_49_1003">
<rect width="83" height="83" fill="white" transform="translate(4)"/>
</clipPath>
<clipPath id="clip1_49_1003">
<rect width="83" height="83" fill="white" transform="translate(4 -1)"/>
</clipPath>
</defs>
</svg>
